<?xml version="1.0" encoding="utf-8"?>
<!-- Generator: Adobe Illustrator 22.0.1, SVG Export Plug-In . SVG Version: 6.00 Build 0)  -->
<svg version="1.1" id="Layer_1" xmlns="http://www.w3.org/2000/svg" xmlns:xlink="http://www.w3.org/1999/xlink" x="0px" y="0px"
	 viewBox="0 0 97.3 30" style="enable-background:new 0 0 97.3 30;" xml:space="preserve" width="97" height="30">
<style type="text/css">
	.st0{fill:#FFFFFF;}
</style>
<g>
	<path class="st0" d="M9,9.2c4.5,0,7.6,2.4,8.6,6.4h-5c-0.5-1.5-1.8-2.5-3.7-2.5c-2.6,0-4.3,2-4.3,5.5S6.3,24,8.9,24
		c1.9,0,3.1-0.9,3.7-2.5h5c-1,3.9-4,6.4-8.6,6.4c-5.3-0.1-9-3.7-9-9.4S3.7,9.2,9,9.2z"/>
	<path class="st0" d="M38.1,27.6h-4.6v-2.3c-1.1,1.5-3.1,2.5-5.4,2.5c-4.2,0-7.3-2.7-7.3-7.7V9.5h4.6v10c0,2.9,1.6,4.5,4,4.5
		c2.5,0,4.1-1.6,4.1-4.5v-10h4.6V27.6z"/>
	<path class="st0" d="M53.2,9.2c4.6,0,8.3,3.7,8.3,9.3s-3.7,9.4-8.3,9.4c-2.8,0-4.9-1.3-6-2.9v2.6h-4.6V3.3h4.6v8.8
		C48.3,10.5,50.5,9.2,53.2,9.2z M52,13.2c-2.5,0-4.8,1.9-4.8,5.4s2.3,5.4,4.8,5.4c2.5,0,4.9-2,4.9-5.4C56.9,15,54.5,13.2,52,13.2z"
		/>
	<rect x="64.9" y="9.5" class="st0" width="4.6" height="18.2"/>
	<path class="st0" d="M80.3,22L77,27.6h-4.9l5.9-9.1l-6-9.1h5.2L81,15l3.4-5.6h4.9l-6,9.1l6,9.1H84L80.3,22z"/>
</g>
<circle class="st0" cx="67.1" cy="4.7" r="3.1"/>
<circle class="st0" cx="93.9" cy="24.3" r="3.1"/>
</svg>
